<svg xmlns="http://www.w3.org/2000/svg" width="360" height="182" viewBox="0 0 360 182" role="img" aria-label="tmux pane 3: SlugLoop. shipped: Top 10 Global at GDSC Solution Challenge, 2023-02-04. real-time campus bus tracker, UCSC-approved. JavaScript, 9 stars, 4 forks. $ cd ~/ships/slugloop"><title>tmux pane 3: SlugLoop. shipped: Top 10 Global at GDSC Solution Challenge, 2023-02-04. real-time campus bus tracker, UCSC-approved. JavaScript, 9 stars, 4 forks. $ cd ~/ships/slugloop</title><style>text{font-family:ui-monospace,SFMono-Regular,'SF Mono',Menlo,Consolas,'Liberation Mono',monospace}.cv{fill:#0D1117}.pn{fill:#151B23}.ln-f{fill:#3D444D}.fg{fill:#F0F6FC}.mu{fill:#9198A1}.acc{fill:#C04BFF}.acct{fill:#E0B3FF}.accd{fill:#8A3FC7}.tr{fill:#2A1740}.gh{fill:#221630}.chip{fill:#C04BFF}.ink{fill:#0D1117}.warn{fill:#FFB000}.red{fill:#FF5555}.key{fill:#21262D}.khi{fill:#3D444D}.klo{fill:#010409}.flat{fill:#0D1117}.ln{stroke:#3D444D;fill:none}.acc-s{stroke:#C04BFF;fill:none}.accd-s{stroke:#8A3FC7;fill:none}.warn-s{stroke:#FFB000;fill:none}.red-s{stroke:#FF5555;fill:none}.fl-s{stroke:#262C36;fill:none}.mu-s{stroke:#9198A1;fill:none}.glow{filter:url(#phglow)}.blink{animation:phblink 1.06s steps(1) infinite}@keyframes phblink{0%,49%{opacity:1}50%,100%{opacity:0}}.flk{animation:phflk 6.7s steps(1) infinite 2.3s}@keyframes phflk{0%,86%{opacity:1}87%{opacity:.12}88%{opacity:1}90%{opacity:.3}91%,100%{opacity:1}}@media (prefers-reduced-motion: reduce){*{animation:none!important}}</style><defs><filter id="phglow" x="-20%" y="-40%" width="140%" height="180%"><feGaussianBlur stdDeviation="2.2" result="b"/><feMerge><feMergeNode in="b"/><feMergeNode in="SourceGraphic"/></feMerge></filter><pattern id="led" x="14" y="32" width="4" height="4" patternUnits="userSpaceOnUse"><rect width="3" height="3" class="gh"/></pattern></defs><rect x="0" y="0" width="360" height="178" rx="6" class="pn"/><line x1="8" y1="14" x2="14" y2="14" class="ln" stroke-width="1"/><text x="20" y="17.6" class="mu" font-size="11" textLength="66" lengthAdjust="spacing" xml:space="preserve">3 SlugLoop</text><text x="208" y="17.6" class="mu" font-size="11" textLength="39.6" lengthAdjust="spacing" xml:space="preserve">[SHIP]</text><text x="254.2" y="17.6" class="mu" font-size="11" textLength="85.8" lengthAdjust="spacing" xml:space="preserve">top 10 global</text><line x1="346" y1="14" x2="352" y2="14" class="ln" stroke-width="1"/><line x1="92" y1="14" x2="202" y2="14" class="ln" stroke-width="1"/><rect x="9.5" y="27.5" width="340" height="36" rx="3" class="flat"/><rect x="9.5" y="27.5" width="340" height="36" rx="3" class="fl-s" stroke-width="1"/><rect x="14" y="32" width="331" height="27" fill="url(#led)"/><g class="glow"><path class="acc" d="M18 32h3v3h-3zM22 32h3v3h-3zM26 32h3v3h-3zM30 32h3v3h-3zM14 40h3v3h-3zM18 44h3v3h-3zM22 44h3v3h-3zM26 44h3v3h-3zM30 48h3v3h-3zM30 52h3v3h-3zM14 56h3v3h-3zM18 56h3v3h-3zM22 56h3v3h-3zM26 56h3v3h-3zM38 32h3v3h-3zM38 36h3v3h-3zM38 40h3v3h-3zM38 44h3v3h-3zM38 48h3v3h-3zM38 52h3v3h-3zM38 56h3v3h-3zM42 56h3v3h-3zM46 56h3v3h-3zM50 56h3v3h-3zM54 56h3v3h-3zM62 32h3v3h-3zM78 32h3v3h-3zM62 36h3v3h-3zM78 36h3v3h-3zM62 40h3v3h-3zM78 40h3v3h-3zM62 44h3v3h-3zM78 44h3v3h-3zM62 48h3v3h-3zM78 48h3v3h-3zM62 52h3v3h-3zM78 52h3v3h-3zM66 56h3v3h-3zM70 56h3v3h-3zM74 56h3v3h-3zM90 32h3v3h-3zM94 32h3v3h-3zM98 32h3v3h-3zM86 36h3v3h-3zM102 36h3v3h-3zM86 40h3v3h-3zM86 44h3v3h-3zM94 44h3v3h-3zM98 44h3v3h-3zM102 44h3v3h-3zM86 48h3v3h-3zM102 48h3v3h-3zM86 52h3v3h-3zM102 52h3v3h-3zM90 56h3v3h-3zM94 56h3v3h-3zM98 56h3v3h-3zM110 32h3v3h-3zM110 36h3v3h-3zM110 40h3v3h-3zM110 44h3v3h-3zM110 48h3v3h-3zM110 52h3v3h-3zM110 56h3v3h-3zM114 56h3v3h-3zM118 56h3v3h-3zM122 56h3v3h-3zM126 56h3v3h-3zM138 32h3v3h-3zM142 32h3v3h-3zM146 32h3v3h-3zM134 36h3v3h-3zM150 36h3v3h-3zM134 40h3v3h-3zM150 40h3v3h-3zM134 44h3v3h-3zM150 44h3v3h-3zM134 48h3v3h-3zM150 48h3v3h-3zM134 52h3v3h-3zM150 52h3v3h-3zM138 56h3v3h-3zM142 56h3v3h-3zM146 56h3v3h-3zM162 32h3v3h-3zM166 32h3v3h-3zM170 32h3v3h-3zM158 36h3v3h-3zM174 36h3v3h-3zM158 40h3v3h-3zM174 40h3v3h-3zM158 44h3v3h-3zM174 44h3v3h-3zM158 48h3v3h-3zM174 48h3v3h-3zM158 52h3v3h-3zM174 52h3v3h-3zM162 56h3v3h-3zM166 56h3v3h-3zM170 56h3v3h-3zM182 32h3v3h-3zM186 32h3v3h-3zM190 32h3v3h-3zM194 32h3v3h-3zM182 36h3v3h-3zM198 36h3v3h-3zM182 40h3v3h-3zM198 40h3v3h-3zM182 44h3v3h-3zM186 44h3v3h-3zM190 44h3v3h-3zM194 44h3v3h-3zM182 48h3v3h-3zM182 52h3v3h-3zM182 56h3v3h-3z"/><path class="acc flk" d="M14 36h3v3h-3z"/></g><text x="14" y="83" class="fg" font-size="12" textLength="309.6" lengthAdjust="spacing" xml:space="preserve">real-time campus bus tracker, UCSC-approved</text><text x="14" y="105" class="mu" font-size="12" textLength="36" lengthAdjust="spacing" xml:space="preserve">event</text><text x="64.4" y="105" class="fg" font-size="12" textLength="165.6" lengthAdjust="spacing" xml:space="preserve">GDSC Solution Challenge</text><text x="14" y="123" class="mu" font-size="12" textLength="28.8" lengthAdjust="spacing" xml:space="preserve">date</text><text x="64.4" y="123" class="fg" font-size="12" textLength="72" lengthAdjust="spacing" xml:space="preserve">2023-02-04</text><text x="150.8" y="123" class="mu" font-size="12" textLength="72" lengthAdjust="spacing" xml:space="preserve">JavaScript</text><text x="14" y="141" class="mu" font-size="12" textLength="28.8" lengthAdjust="spacing" xml:space="preserve">repo</text><text x="64.4" y="141" class="mu" font-size="12" textLength="115.2" lengthAdjust="spacing" xml:space="preserve">9 stars  4 forks</text><text x="14" y="164" class="acc" font-size="12" font-weight="700" xml:space="preserve">$</text><text x="28.4" y="164" class="fg" font-size="12" textLength="136.8" lengthAdjust="spacing" xml:space="preserve">cd ~/ships/slugloop</text></svg>
