<svg xmlns="http://www.w3.org/2000/svg" width="28" height="28" viewBox="0 0 28 28" role="img" aria-label="verified sector, 3 corrupted neighbours"><title>verified sector, 3 corrupted neighbours</title><style>text{font-family:ui-monospace,SFMono-Regular,'SF Mono',Menlo,Consolas,'Liberation Mono',monospace}.cv{fill:#FFFFFF}.pn{fill:#F6F8FA}.ln-f{fill:#D1D9E0}.fg{fill:#1F2328}.mu{fill:#59636E}.acc{fill:#7B2CBF}.acct{fill:#5A1F8C}.accd{fill:#9D6BD6}.tr{fill:#E9DDF7}.gh{fill:#EFE8F7}.chip{fill:#C9A0FF}.ink{fill:#1F2328}.warn{fill:#BC4C00}.red{fill:#CF222E}.key{fill:#E6EAEF}.khi{fill:#FFFFFF}.klo{fill:#C4CCD5}.flat{fill:#FFFFFF}.ln{stroke:#D1D9E0;fill:none}.acc-s{stroke:#7B2CBF;fill:none}.accd-s{stroke:#9D6BD6;fill:none}.warn-s{stroke:#BC4C00;fill:none}.red-s{stroke:#CF222E;fill:none}.fl-s{stroke:#D1D9E0;fill:none}.mu-s{stroke:#59636E;fill:none}.glow{filter:none}.blink{animation:phblink 1.06s steps(1) infinite}@keyframes phblink{0%,49%{opacity:1}50%,100%{opacity:0}}@media (prefers-reduced-motion: reduce){*{animation:none!important}}</style><defs><filter id="phglow" x="-20%" y="-40%" width="140%" height="180%"><feGaussianBlur stdDeviation="2.2" result="b"/><feMerge><feMergeNode in="b"/><feMergeNode in="SourceGraphic"/></feMerge></filter></defs><rect width="28" height="28" class="pn"/><rect x="2.5" y="2.5" width="23" height="23" rx="3" class="flat"/><rect x="2.5" y="2.5" width="23" height="23" rx="3" class="fl-s" stroke-width="1"/><path class="warn" d="M9 7h2v2h-2zM11 7h2v2h-2zM13 7h2v2h-2zM15 7h2v2h-2zM17 7h2v2h-2zM15 9h2v2h-2zM13 11h2v2h-2zM15 13h2v2h-2zM17 15h2v2h-2zM9 17h2v2h-2zM17 17h2v2h-2zM11 19h2v2h-2zM13 19h2v2h-2zM15 19h2v2h-2z"/></svg>
