<svg xmlns="http://www.w3.org/2000/svg" width="360" height="361" viewBox="0 0 360 361" role="img" aria-label="fsck status for /dev/sda1: a start job is running (no limit). board #3, online since 07-23. 0 of 71 sectors verified (0%). corrupt: 10 sectors, map sealed (hmac). totals: 1 operator, 2 scans, 1 panic, 0 cleans. last ops: 07-23 IdkwhatImD0ing reformat: new disk online; 07-23 IdkwhatImD0ing fsck C3: KERNEL PANIC; 07-23 IdkwhatImD0ing fsck E5: sector clean. hall of fame: vacant. hall of shame: IdkwhatImD0ing x1. click a sector, submit the issue as-is. eyes = ack. the board redraws in ~1 min. first scan is always safe."><title>fsck status for /dev/sda1: a start job is running (no limit). board #3, online since 07-23. 0 of 71 sectors verified (0%). corrupt: 10 sectors, map sealed (hmac). totals: 1 operator, 2 scans, 1 panic, 0 cleans. last ops: 07-23 IdkwhatImD0ing reformat: new disk online; 07-23 IdkwhatImD0ing fsck C3: KERNEL PANIC; 07-23 IdkwhatImD0ing fsck E5: sector clean. hall of fame: vacant. hall of shame: IdkwhatImD0ing x1. click a sector, submit the issue as-is. eyes = ack. the board redraws in ~1 min. first scan is always safe.</title><style>text{font-family:ui-monospace,SFMono-Regular,'SF Mono',Menlo,Consolas,'Liberation Mono',monospace}.cv{fill:#0D1117}.pn{fill:#151B23}.ln-f{fill:#3D444D}.fg{fill:#F0F6FC}.mu{fill:#9198A1}.acc{fill:#C04BFF}.acct{fill:#E0B3FF}.accd{fill:#8A3FC7}.tr{fill:#2A1740}.gh{fill:#221630}.chip{fill:#C04BFF}.ink{fill:#0D1117}.warn{fill:#FFB000}.red{fill:#FF5555}.key{fill:#21262D}.khi{fill:#3D444D}.klo{fill:#010409}.flat{fill:#0D1117}.ln{stroke:#3D444D;fill:none}.acc-s{stroke:#C04BFF;fill:none}.accd-s{stroke:#8A3FC7;fill:none}.warn-s{stroke:#FFB000;fill:none}.red-s{stroke:#FF5555;fill:none}.fl-s{stroke:#262C36;fill:none}.mu-s{stroke:#9198A1;fill:none}.glow{filter:url(#phglow)}.blink{animation:phblink 1.06s steps(1) infinite}@keyframes phblink{0%,49%{opacity:1}50%,100%{opacity:0}}.bf{animation:fsbf 1.2s steps(1) infinite;opacity:0}.bf0{opacity:1}.bf1{animation-delay:0.2s}.bf2{animation-delay:0.4s}.bf3{animation-delay:0.6s}.bf4{animation-delay:0.8s}.bf5{animation-delay:1.0s}@keyframes fsbf{0%{opacity:1}16.66%,100%{opacity:0}}@media (prefers-reduced-motion: reduce){*{animation:none!important}}</style><defs><filter id="phglow" x="-20%" y="-40%" width="140%" height="180%"><feGaussianBlur stdDeviation="2.2" result="b"/><feMerge><feMergeNode in="b"/><feMergeNode in="SourceGraphic"/></feMerge></filter></defs><rect x="0" y="0" width="360" height="347" rx="6" class="pn"/><line x1="6" y1="12" x2="12" y2="12" class="ln" stroke-width="1"/><text x="18" y="15.6" class="mu" font-size="11" textLength="118.8" lengthAdjust="spacing" xml:space="preserve">1 fsck.art3m1s 5.8</text><text x="282.6" y="15.6" class="mu" font-size="11" textLength="59.4" lengthAdjust="spacing" xml:space="preserve">/dev/sda1</text><line x1="348" y1="12" x2="354" y2="12" class="ln" stroke-width="1"/><line x1="142.8" y1="12" x2="276.6" y2="12" class="ln" stroke-width="1"/><text x="12" y="37" class="mu" font-size="12" xml:space="preserve">[</text><text x="62.4" y="37" class="mu" font-size="12" textLength="14.4" lengthAdjust="spacing" xml:space="preserve">] </text><text x="76.8" y="37" class="fg" font-size="12" textLength="158.4" lengthAdjust="spacing" xml:space="preserve">a start job is running</text><text x="235.2" y="37" class="mu" font-size="12" textLength="79.2" lengthAdjust="spacing" xml:space="preserve"> (no limit)</text><text x="26.4" y="37" class="warn bf bf0" font-size="12" font-weight="700" textLength="21.6" lengthAdjust="spacing" xml:space="preserve">***</text><text x="33.6" y="37" class="warn bf bf1" font-size="12" font-weight="700" textLength="21.6" lengthAdjust="spacing" xml:space="preserve">***</text><text x="40.8" y="37" class="warn bf bf2" font-size="12" font-weight="700" textLength="21.6" lengthAdjust="spacing" xml:space="preserve">***</text><text x="33.6" y="37" class="warn bf bf3" font-size="12" font-weight="700" textLength="21.6" lengthAdjust="spacing" xml:space="preserve">***</text><text x="26.4" y="37" class="warn bf bf4" font-size="12" font-weight="700" textLength="21.6" lengthAdjust="spacing" xml:space="preserve">***</text><text x="19.2" y="37" class="warn bf bf5" font-size="12" font-weight="700" textLength="21.6" lengthAdjust="spacing" xml:space="preserve">***</text><text x="12" y="61" class="mu" font-size="12" textLength="36" lengthAdjust="spacing" xml:space="preserve">board</text><text x="91.2" y="61" class="fg" font-size="12" textLength="158.4" lengthAdjust="spacing" xml:space="preserve">#3, online since 07-23</text><text x="348" y="79" class="mu" font-size="12" text-anchor="end" textLength="14.4" lengthAdjust="spacing" xml:space="preserve">0%</text><text x="12" y="79" class="mu" font-size="12" textLength="57.6" lengthAdjust="spacing" xml:space="preserve">verified</text><text x="91.2" y="79" class="fg" font-size="12" textLength="28.8" lengthAdjust="spacing" xml:space="preserve">0/71</text><rect x="12" y="86" width="3.8" height="10" class="tr"/><rect x="16.8" y="86" width="3.8" height="10" class="tr"/><rect x="21.5" y="86" width="3.8" height="10" class="tr"/><rect x="26.2" y="86" width="3.8" height="10" class="tr"/><rect x="31" y="86" width="3.8" height="10" class="tr"/><rect x="35.8" y="86" width="3.8" height="10" class="tr"/><rect x="40.5" y="86" width="3.8" height="10" class="tr"/><rect x="45.2" y="86" width="3.8" height="10" class="tr"/><rect x="50" y="86" width="3.8" height="10" class="tr"/><rect x="54.8" y="86" width="3.8" height="10" class="tr"/><rect x="59.5" y="86" width="3.8" height="10" class="tr"/><rect x="64.2" y="86" width="3.8" height="10" class="tr"/><rect x="69" y="86" width="3.8" height="10" class="tr"/><rect x="73.8" y="86" width="3.8" height="10" class="tr"/><rect x="78.5" y="86" width="3.8" height="10" class="tr"/><rect x="83.2" y="86" width="3.8" height="10" class="tr"/><rect x="88" y="86" width="3.8" height="10" class="tr"/><rect x="92.8" y="86" width="3.8" height="10" class="tr"/><rect x="97.5" y="86" width="3.8" height="10" class="tr"/><rect x="102.2" y="86" width="3.8" height="10" class="tr"/><rect x="107" y="86" width="3.8" height="10" class="tr"/><rect x="111.8" y="86" width="3.8" height="10" class="tr"/><rect x="116.5" y="86" width="3.8" height="10" class="tr"/><rect x="121.2" y="86" width="3.8" height="10" class="tr"/><rect x="126" y="86" width="3.8" height="10" class="tr"/><rect x="130.8" y="86" width="3.8" height="10" class="tr"/><rect x="135.5" y="86" width="3.8" height="10" class="tr"/><rect x="140.2" y="86" width="3.8" height="10" class="tr"/><rect x="145" y="86" width="3.8" height="10" class="tr"/><rect x="149.8" y="86" width="3.8" height="10" class="tr"/><rect x="154.5" y="86" width="3.8" height="10" class="tr"/><rect x="159.2" y="86" width="3.8" height="10" class="tr"/><rect x="164" y="86" width="3.8" height="10" class="tr"/><rect x="168.8" y="86" width="3.8" height="10" class="tr"/><rect x="173.5" y="86" width="3.8" height="10" class="tr"/><rect x="178.2" y="86" width="3.8" height="10" class="tr"/><rect x="183" y="86" width="3.8" height="10" class="tr"/><rect x="187.8" y="86" width="3.8" height="10" class="tr"/><rect x="192.5" y="86" width="3.8" height="10" class="tr"/><rect x="197.2" y="86" width="3.8" height="10" class="tr"/><rect x="202" y="86" width="3.8" height="10" class="tr"/><rect x="206.8" y="86" width="3.8" height="10" class="tr"/><rect x="211.5" y="86" width="3.8" height="10" class="tr"/><rect x="216.2" y="86" width="3.8" height="10" class="tr"/><rect x="221" y="86" width="3.8" height="10" class="tr"/><rect x="225.8" y="86" width="3.8" height="10" class="tr"/><rect x="230.5" y="86" width="3.8" height="10" class="tr"/><rect x="235.2" y="86" width="3.8" height="10" class="tr"/><rect x="240" y="86" width="3.8" height="10" class="tr"/><rect x="244.8" y="86" width="3.8" height="10" class="tr"/><rect x="249.5" y="86" width="3.8" height="10" class="tr"/><rect x="254.2" y="86" width="3.8" height="10" class="tr"/><rect x="259" y="86" width="3.8" height="10" class="tr"/><rect x="263.8" y="86" width="3.8" height="10" class="tr"/><rect x="268.5" y="86" width="3.8" height="10" class="tr"/><rect x="273.2" y="86" width="3.8" height="10" class="tr"/><rect x="278" y="86" width="3.8" height="10" class="tr"/><rect x="282.8" y="86" width="3.8" height="10" class="tr"/><rect x="287.5" y="86" width="3.8" height="10" class="tr"/><rect x="292.2" y="86" width="3.8" height="10" class="tr"/><rect x="297" y="86" width="3.8" height="10" class="tr"/><rect x="301.8" y="86" width="3.8" height="10" class="tr"/><rect x="306.5" y="86" width="3.8" height="10" class="tr"/><rect x="311.2" y="86" width="3.8" height="10" class="tr"/><rect x="316" y="86" width="3.8" height="10" class="tr"/><rect x="320.8" y="86" width="3.8" height="10" class="tr"/><rect x="325.5" y="86" width="3.8" height="10" class="tr"/><rect x="330.2" y="86" width="3.8" height="10" class="tr"/><rect x="335" y="86" width="3.8" height="10" class="tr"/><rect x="339.8" y="86" width="3.8" height="10" class="tr"/><rect x="344.5" y="86" width="3.8" height="10" class="tr"/><text x="12" y="115" class="mu" font-size="12" textLength="50.4" lengthAdjust="spacing" xml:space="preserve">corrupt</text><text x="91.2" y="115" class="fg" font-size="12" textLength="208.8" lengthAdjust="spacing" xml:space="preserve">10 sectors, map sealed (hmac)</text><text x="12" y="133" class="mu" font-size="12" textLength="43.2" lengthAdjust="spacing" xml:space="preserve">totals</text><text x="91.2" y="133" class="fg" font-size="12" textLength="144" lengthAdjust="spacing" xml:space="preserve">1 operator, 2 scans,</text><text x="91.2" y="151" class="fg" font-size="12" textLength="122.4" lengthAdjust="spacing" xml:space="preserve">1 panic, 0 cleans</text><text x="12" y="175" class="mu" font-size="12" textLength="72" lengthAdjust="spacing" xml:space="preserve">S.M.A.R.T.</text><text x="12" y="193" class="mu" font-size="12" textLength="43.2" lengthAdjust="spacing" xml:space="preserve">07-23 </text><text x="55.2" y="193" class="fg" font-size="12" textLength="108" lengthAdjust="spacing" xml:space="preserve">IdkwhatImD0ing </text><text x="163.2" y="193" class="mu" font-size="12" textLength="64.8" lengthAdjust="spacing" xml:space="preserve">reformat </text><text x="228" y="193" class="fg" font-size="12" textLength="108" lengthAdjust="spacing" xml:space="preserve">new disk online</text><text x="12" y="211" class="mu" font-size="12" textLength="43.2" lengthAdjust="spacing" xml:space="preserve">07-23 </text><text x="55.2" y="211" class="fg" font-size="12" textLength="108" lengthAdjust="spacing" xml:space="preserve">IdkwhatImD0ing </text><text x="163.2" y="211" class="mu" font-size="12" textLength="64.8" lengthAdjust="spacing" xml:space="preserve">fsck C3  </text><text x="228" y="211" class="red" font-size="12" font-weight="700" textLength="86.4" lengthAdjust="spacing" xml:space="preserve">KERNEL PANIC</text><text x="12" y="229" class="mu" font-size="12" textLength="43.2" lengthAdjust="spacing" xml:space="preserve">07-23 </text><text x="55.2" y="229" class="fg" font-size="12" textLength="108" lengthAdjust="spacing" xml:space="preserve">IdkwhatImD0ing </text><text x="163.2" y="229" class="mu" font-size="12" textLength="64.8" lengthAdjust="spacing" xml:space="preserve">fsck E5  </text><text x="228" y="229" class="fg" font-size="12" textLength="86.4" lengthAdjust="spacing" xml:space="preserve">sector clean</text><text x="12" y="253" class="mu" font-size="12" textLength="50.4" lengthAdjust="spacing" xml:space="preserve">hall of</text><text x="91.2" y="253" class="mu" font-size="12" textLength="43.2" lengthAdjust="spacing" xml:space="preserve">fame  </text><text x="134.4" y="253" class="mu" font-size="12" textLength="57.6" lengthAdjust="spacing" xml:space="preserve">(vacant)</text><text x="91.2" y="271" class="mu" font-size="12" textLength="43.2" lengthAdjust="spacing" xml:space="preserve">shame </text><text x="134.4" y="271" class="warn" font-size="12" textLength="144" lengthAdjust="spacing" xml:space="preserve">1. IdkwhatImD0ing x1</text><text x="12" y="297" class="mu" font-size="12" textLength="14.4" lengthAdjust="spacing" xml:space="preserve"># </text><text x="26.4" y="297" class="warn" font-size="12" textLength="86.4" lengthAdjust="spacing" xml:space="preserve">tap a sector</text><text x="112.8" y="297" class="mu" font-size="12" textLength="180" lengthAdjust="spacing" xml:space="preserve">, submit the issue as-is.</text><text x="12" y="315" class="mu" font-size="12" textLength="302.4" lengthAdjust="spacing" xml:space="preserve"># eyes = ack. the board redraws in ~1 min.</text><text x="12" y="333" class="mu" font-size="12" textLength="230.4" lengthAdjust="spacing" xml:space="preserve"># the first scan is always safe.</text></svg>
