<svg xmlns="http://www.w3.org/2000/svg" width="28" height="28" viewBox="0 0 28 28" role="img" aria-label="verified sector, 2 corrupted neighbours"><title>verified sector, 2 corrupted neighbours</title><style>text{font-family:ui-monospace,SFMono-Regular,'SF Mono',Menlo,Consolas,'Liberation Mono',monospace}.cv{fill:#0D1117}.pn{fill:#151B23}.ln-f{fill:#3D444D}.fg{fill:#F0F6FC}.mu{fill:#9198A1}.acc{fill:#00FF41}.acct{fill:#B6F5C4}.accd{fill:#149238}.tr{fill:#123D22}.gh{fill:#162A1E}.chip{fill:#00FF41}.ink{fill:#0D1117}.warn{fill:#FFB000}.red{fill:#FF5555}.key{fill:#21262D}.khi{fill:#3D444D}.klo{fill:#010409}.flat{fill:#0D1117}.ln{stroke:#3D444D;fill:none}.acc-s{stroke:#00FF41;fill:none}.accd-s{stroke:#149238;fill:none}.warn-s{stroke:#FFB000;fill:none}.red-s{stroke:#FF5555;fill:none}.fl-s{stroke:#262C36;fill:none}.mu-s{stroke:#9198A1;fill:none}.glow{filter:url(#phglow)}.blink{animation:phblink 1.06s steps(1) infinite}@keyframes phblink{0%,49%{opacity:1}50%,100%{opacity:0}}@media (prefers-reduced-motion: reduce){*{animation:none!important}}</style><defs><filter id="phglow" x="-20%" y="-40%" width="140%" height="180%"><feGaussianBlur stdDeviation="2.2" result="b"/><feMerge><feMergeNode in="b"/><feMergeNode in="SourceGraphic"/></feMerge></filter><filter id="tglow" filterUnits="userSpaceOnUse" x="0" y="0" width="28" height="28"><feGaussianBlur stdDeviation="1.2" result="b"/><feMerge><feMergeNode in="b"/><feMergeNode in="SourceGraphic"/></feMerge></filter></defs><rect width="28" height="28" class="pn"/><rect x="2.5" y="2.5" width="23" height="23" rx="3" class="flat"/><rect x="2.5" y="2.5" width="23" height="23" rx="3" class="fl-s" stroke-width="1"/><g filter="url(#tglow)"><g class="acc"><rect x="11" y="7" width="2" height="2"/><rect x="13" y="7" width="2" height="2"/><rect x="15" y="7" width="2" height="2"/><rect x="9" y="9" width="2" height="2"/><rect x="17" y="9" width="2" height="2"/><rect x="17" y="11" width="2" height="2"/><rect x="15" y="13" width="2" height="2"/><rect x="13" y="15" width="2" height="2"/><rect x="11" y="17" width="2" height="2"/><rect x="9" y="19" width="2" height="2"/><rect x="11" y="19" width="2" height="2"/><rect x="13" y="19" width="2" height="2"/><rect x="15" y="19" width="2" height="2"/><rect x="17" y="19" width="2" height="2"/></g></g></svg>
