<svg xmlns="http://www.w3.org/2000/svg" width="28" height="28" viewBox="0 0 28 28" role="img" aria-label="verified sector, 6 corrupted neighbours"><title>verified sector, 6 corrupted neighbours</title><style>text{font-family:ui-monospace,SFMono-Regular,'SF Mono',Menlo,Consolas,'Liberation Mono',monospace}.cv{fill:#0D1117}.pn{fill:#151B23}.ln-f{fill:#3D444D}.fg{fill:#F0F6FC}.mu{fill:#9198A1}.acc{fill:#C04BFF}.acct{fill:#E0B3FF}.accd{fill:#8A3FC7}.tr{fill:#2A1740}.gh{fill:#221630}.chip{fill:#C04BFF}.ink{fill:#0D1117}.warn{fill:#FFB000}.red{fill:#FF5555}.key{fill:#21262D}.khi{fill:#3D444D}.klo{fill:#010409}.flat{fill:#0D1117}.ln{stroke:#3D444D;fill:none}.acc-s{stroke:#C04BFF;fill:none}.accd-s{stroke:#8A3FC7;fill:none}.warn-s{stroke:#FFB000;fill:none}.red-s{stroke:#FF5555;fill:none}.fl-s{stroke:#262C36;fill:none}.mu-s{stroke:#9198A1;fill:none}.glow{filter:url(#phglow)}.blink{animation:phblink 1.06s steps(1) infinite}@keyframes phblink{0%,49%{opacity:1}50%,100%{opacity:0}}@media (prefers-reduced-motion: reduce){*{animation:none!important}}</style><defs><filter id="phglow" x="-20%" y="-40%" width="140%" height="180%"><feGaussianBlur stdDeviation="2.2" result="b"/><feMerge><feMergeNode in="b"/><feMergeNode in="SourceGraphic"/></feMerge></filter><filter id="tglow" filterUnits="userSpaceOnUse" x="0" y="0" width="28" height="28"><feGaussianBlur stdDeviation="1.2" result="b"/><feMerge><feMergeNode in="b"/><feMergeNode in="SourceGraphic"/></feMerge></filter></defs><rect width="28" height="28" class="pn"/><rect x="2.5" y="2.5" width="23" height="23" rx="3" class="flat"/><rect x="2.5" y="2.5" width="23" height="23" rx="3" class="fl-s" stroke-width="1"/><g filter="url(#tglow)"><path class="warn" d="M13 7h2v2h-2zM15 7h2v2h-2zM11 9h2v2h-2zM9 11h2v2h-2zM9 13h2v2h-2zM11 13h2v2h-2zM13 13h2v2h-2zM15 13h2v2h-2zM9 15h2v2h-2zM17 15h2v2h-2zM9 17h2v2h-2zM17 17h2v2h-2zM11 19h2v2h-2zM13 19h2v2h-2zM15 19h2v2h-2z"/></g></svg>
