<svg xmlns="http://www.w3.org/2000/svg" width="28" height="28" viewBox="0 0 28 28" role="img" aria-label="the corrupted sector that panicked the kernel"><title>the corrupted sector that panicked the kernel</title><style>text{font-family:ui-monospace,SFMono-Regular,'SF Mono',Menlo,Consolas,'Liberation Mono',monospace}.cv{fill:#0D1117}.pn{fill:#151B23}.ln-f{fill:#3D444D}.fg{fill:#F0F6FC}.mu{fill:#9198A1}.acc{fill:#C04BFF}.acct{fill:#E0B3FF}.accd{fill:#8A3FC7}.tr{fill:#2A1740}.gh{fill:#221630}.chip{fill:#C04BFF}.ink{fill:#0D1117}.warn{fill:#FFB000}.red{fill:#FF5555}.key{fill:#21262D}.khi{fill:#3D444D}.klo{fill:#010409}.flat{fill:#0D1117}.ln{stroke:#3D444D;fill:none}.acc-s{stroke:#C04BFF;fill:none}.accd-s{stroke:#8A3FC7;fill:none}.warn-s{stroke:#FFB000;fill:none}.red-s{stroke:#FF5555;fill:none}.fl-s{stroke:#262C36;fill:none}.mu-s{stroke:#9198A1;fill:none}.glow{filter:url(#phglow)}.blink{animation:phblink 1.06s steps(1) infinite}@keyframes phblink{0%,49%{opacity:1}50%,100%{opacity:0}}.pk{animation:fspk 4.7s steps(1) 1.2s infinite}@keyframes fspk{0%{opacity:1}90%{opacity:.3}92%{opacity:1}94%{opacity:.45}96%,100%{opacity:1}}@media (prefers-reduced-motion: reduce){*{animation:none!important}}</style><defs><filter id="phglow" x="-20%" y="-40%" width="140%" height="180%"><feGaussianBlur stdDeviation="2.2" result="b"/><feMerge><feMergeNode in="b"/><feMergeNode in="SourceGraphic"/></feMerge></filter><filter id="tglow" filterUnits="userSpaceOnUse" x="0" y="0" width="28" height="28"><feGaussianBlur stdDeviation="1.2" result="b"/><feMerge><feMergeNode in="b"/><feMergeNode in="SourceGraphic"/></feMerge></filter></defs><rect width="28" height="28" class="pn"/><g class="pk"><rect x="2" y="2" width="24" height="24" rx="3" class="klo"/><rect x="2" y="3" width="24" height="20" rx="3" class="red"/><g class="ink"><rect x="13" y="6" width="2" height="2"/><rect x="9" y="8" width="2" height="2"/><rect x="13" y="8" width="2" height="2"/><rect x="17" y="8" width="2" height="2"/><rect x="11" y="10" width="2" height="2"/><rect x="13" y="10" width="2" height="2"/><rect x="15" y="10" width="2" height="2"/><rect x="7" y="12" width="2" height="2"/><rect x="9" y="12" width="2" height="2"/><rect x="11" y="12" width="2" height="2"/><rect x="13" y="12" width="2" height="2"/><rect x="15" y="12" width="2" height="2"/><rect x="17" y="12" width="2" height="2"/><rect x="19" y="12" width="2" height="2"/><rect x="11" y="14" width="2" height="2"/><rect x="13" y="14" width="2" height="2"/><rect x="15" y="14" width="2" height="2"/><rect x="9" y="16" width="2" height="2"/><rect x="13" y="16" width="2" height="2"/><rect x="17" y="16" width="2" height="2"/><rect x="13" y="18" width="2" height="2"/></g></g></svg>
